# xmcd CD database file
#
# Track frame offsets:
#	150
#	17350
#	29936
#	51134
#	64245
#	95780
#	102642
#	111562
#	122893
#	132947
#	151628
#	159665
#	174178
#	184810
#	202442
#	214758
#
# Disc length: 3120 seconds
#
# Revision: 0
# Processed by: cddbd v1.5.2PL0 Copyright (c) Steve Scherf et al.
# Submitted via: CDex 1.51
#
DISCID=f10c2e10
DTITLE=Tammy Jones - Sing As We Go
DYEAR=2008
DGENRE=Country
TTITLE0=Tammy Jones - Knees Up Mother Brown
TTITLE1=Tammy Jones - White Cliffs Of Dover
TTITLE2=Tammy Jones - This Is The Army Mr Jones
TTITLE3=Tammy Jones - You Will Never Grow Old
TTITLE4=Tammy Jones - Medley No1 Bill Baily- 
TTITLE5=Tammy Jones - I Belong To Glasgow
TTITLE6=Tammy Jones - Northern Lights Of Old Aberdeen
TTITLE7=Tammy Jones - You'll Never Know
TTITLE8=Tammy Jones - Medley No2 Bye Bye Blackbird
TTITLE9=Tammy Jones - A Nightingale Sang In Berkley Square
TTITLE10=Tammy Jones - Wish Me Luck
TTITLE11=Tammy Jones - When I Grow Too Old To Dream
TTITLE12=Tammy Jones - You Are My Sunshine
TTITLE13=Tammy Jones - Maggie
TTITLE14=Tammy Jones - We'll Meet Again
TTITLE15=Tammy Jones - Medley No3 Lay Down Your Arms
EXTD=YEAR: 2008
EXTT0=
EXTT1=
EXTT2=
EXTT3=
EXTT4=
EXTT5=
EXTT6=
EXTT7=
EXTT8=
EXTT9=
EXTT10=
EXTT11=
EXTT12=
EXTT13=
EXTT14=
EXTT15=
PLAYORDER=
